<svg xmlns="http://www.w3.org/2000/svg" width="368.73" height="285">
  <path fill="#f06597" stroke="#231f20" stroke-miterlimit="10" stroke-width="3" d="M1.5 172.83h365.73V283.5H1.5z"/>
  <path fill="#fc6" stroke="#231f20" stroke-miterlimit="10" stroke-width="3" d="M1.5 1.5h365.73v171.33H1.5z"/>
  <g fill="#f06597">
    <path d="M86.24 134.18h1.44c14.56-.16 20-10 19.87-25.67l21.6-.24v1.6c.33 29.44-13.92 42.72-42.56 43-31.2.36-45.8-17.56-46.29-60.76l-.07-6.4c-.48-43.2 13.71-61.44 44.91-61.79 28.64-.32 43.19 12.63 43.53 43l.06 5.44-21.6.25c-.22-19.84-5.3-30.19-20.5-30h-1.44c-17.76.2-23.36 14.67-23 42.82l.07 6.4c.3 28.21 6.06 42.55 23.98 42.35zM142.69 61.71v-1.6c0-22.08 15.68-36.16 42.72-36.16 29.6 0 42.56 13.92 42.56 42.08v3.68h-21.44c0-18.72-6.08-27-21-27h-1.44c-11.84 0-19.52 6.56-19.52 16.32v1c0 10.24 4.64 16 24.32 18.72 27.2 3.6 40.2 13.36 40.2 35.28v1.76c0 23.36-15.84 37.12-43.68 37.12-28.64 0-43.84-13.92-43.84-42.56v-1.6h21.44c0 17.76 8.16 25.44 21.6 25.44h1.48c13.44 0 21.12-7.2 21.12-17.6v-1c0-10.88-6.08-16.64-25.12-19.2-27.24-3.64-39.4-14.04-39.4-34.68zM237.52 70.89l-.32-1.56c-4.47-21.63 8-38.59 34.53-44.05 29-6 44.49 5 50.19 32.6l.74 3.61-21 4.33c-3.78-18.33-11.42-25.25-26-22.24l-1.41.29c-11.6 2.39-17.79 10.37-15.82 19.93l.19.94c2.07 10 7.78 14.73 27.61 13.42 27.38-1.9 42 5 46.48 26.51l.35 1.72c4.72 22.88-8 39.56-35.27 45.19-28 5.79-45.75-4.77-51.54-32.82l-.33-1.57 21-4.34c3.59 17.4 13.14 23.27 26.3 20.55l1.41-.29c13.16-2.71 19.23-11.32 17.13-21.5l-.2-.94c-2.19-10.67-9.31-15.08-28.47-13.78-27.39 1.93-41.4-5.79-45.57-26z"/>
  </g>
  <g fill="#231f20">
    <path d="M56.03 254.27h-13.6V202.8h13.6c12.54 0 19.93 6.6 19.93 24.42v2.67c0 17.79-7.39 24.38-19.93 24.38zm-.4-4.28c9.9 0 15.46-5.48 15.46-20.1v-2.64c0-14.65-5.55-20.13-15.45-20.13h-8.45v42.9zM113.31 202.8v4.29h-24v18.8h20.65v4.22h-20.6v19.88h24v4.28H84.61V202.8zM148.49 202.8v4.29h-22.9v18.8h19.6v4.22h-19.6v24.15h-4.75V202.8zM171.09 202.27l14.84 52h-5.14l-3.7-13.19h-18.83l-3.69 13.19h-5.15l14.85-52zm-11.64 34.52h16.37l-8.19-29.31zM191.59 238.3v-35.5h4.75v35.17c0 9.77 3.83 12.74 11.75 12.74s11.81-3 11.81-12.74V202.8h4.76v35.5c0 12.41-5.61 16.7-16.57 16.7s-16.5-4.29-16.5-16.7zM234.09 254.27V202.8h4.75v47.19h21.78v4.28zM276.14 254.27h-4.75v-47.18h-13.07v-4.29h30.95v4.29h-13.13zM293.3 216.53v-.64c0-8.58 6.4-13.8 16.17-13.8 11.48 0 16.23 5.94 16.23 16.57v1.58h-4.75c0-9.77-3.43-13.86-11.29-13.86h-.46c-6.27 0-11 3.37-11 8.91v.53c0 5.48 2.84 8.71 12.28 10 11.22 1.52 15.84 6.07 15.84 14v.66c0 9.11-6.54 14.52-16.83 14.52-10.89 0-16.77-6.2-16.77-16.83v-.66h4.76c0 9 4.88 13.2 11.81 13.2h.46c7 0 11.68-3.63 11.68-9.9v-.59c0-6.07-3.76-9.11-12.74-10.36-11.23-1.52-15.39-6.54-15.39-13.33z"/>
  </g>
</svg>
